<?xml version="1.0" standalone="no"?>
<!DOCTYPE svg PUBLIC "-//W3C//DTD SVG 20010904//EN"
 "http://www.w3.org/TR/2001/REC-SVG-20010904/DTD/svg10.dtd">
<svg version="1.0" xmlns="http://www.w3.org/2000/svg"
 width="500.000000pt" height="500.000000pt" viewBox="0 0 500.000000 500.000000"
 preserveAspectRatio="xMidYMid meet">
<metadata>
Created by potrace 1.11, written by Peter Selinger 2001-2013
</metadata>
<g transform="translate(0.000000,500.000000) scale(0.100000,-0.100000)"
fill="#000000" stroke="none">
<path d="M2019 4437 c-9 -7 -16 -26 -15 -45 1 -19 -2 -36 -6 -38 -4 -2 -4 -17
-1 -32 3 -15 6 -42 6 -59 0 -18 3 -33 7 -33 4 0 7 -6 7 -12 0 -7 3 -29 6 -49
5 -27 3 -36 -8 -36 -8 0 -14 3 -13 6 1 17 -15 50 -23 45 -5 -3 -9 2 -9 10 0 9
-5 16 -11 16 -5 0 -7 5 -4 10 3 6 -1 10 -10 10 -9 0 -14 4 -11 9 4 5 0 8 -6 6
-38 -9 -58 -18 -58 -27 0 -5 -4 -6 -10 -3 -9 6 -14 -8 -11 -27 0 -5 -3 -8 -7
-8 -4 0 -8 -9 -8 -20 0 -11 4 -20 7 -20 4 0 24 -15 44 -34 24 -23 32 -37 24
-42 -6 -4 -16 0 -21 9 -5 9 -15 14 -23 11 -8 -4 -15 -1 -15 5 0 6 -3 10 -7 9
-5 -1 -18 3 -30 10 -13 7 -23 10 -23 6 0 -3 -6 -2 -13 4 -7 6 -40 12 -72 13
-81 2 -85 1 -85 -16 0 -8 -4 -15 -10 -15 -5 0 -10 -5 -10 -11 0 -5 5 -7 12 -3
7 5 9 2 6 -7 -6 -14 14 -51 26 -50 21 3 26 0 20 -11 -5 -8 -2 -9 9 -5 9 3 19
2 22 -4 4 -5 11 -7 16 -4 5 4 12 -1 15 -9 3 -9 14 -16 24 -16 11 0 22 -5 25
-10 4 -6 11 -8 16 -5 5 4 9 2 9 -3 0 -6 16 -19 36 -31 19 -12 32 -15 28 -9 -4
7 8 -2 27 -21 19 -18 44 -40 57 -48 12 -9 22 -22 22 -30 0 -8 4 -12 8 -9 4 2
18 -11 31 -30 13 -19 27 -34 32 -34 5 0 9 -5 9 -10 0 -12 40 -71 55 -82 6 -4
7 -8 2 -8 -4 0 0 -11 9 -25 16 -24 16 -25 -7 -25 -19 0 -21 -2 -9 -10 12 -8 9
-10 -12 -10 -16 0 -28 -5 -28 -12 0 -6 -3 -9 -6 -5 -4 3 -13 0 -21 -8 -11 -12
-13 -28 -7 -73 3 -31 11 -63 16 -69 7 -9 7 -13 -1 -13 -7 0 -9 -5 -6 -10 3 -6
-5 -14 -18 -19 -14 -5 -36 -21 -51 -36 -14 -14 -26 -23 -26 -20 0 3 -6 0 -14
-7 -8 -7 -12 -16 -9 -20 2 -5 -3 -8 -11 -8 -9 0 -16 -5 -16 -11 0 -5 -4 -7
-10 -4 -5 3 -10 2 -10 -4 0 -14 -53 -66 -63 -63 -5 1 -6 -2 -3 -7 4 -5 -6 -19
-20 -30 -15 -12 -23 -21 -19 -21 4 0 -4 -11 -19 -25 -14 -13 -26 -26 -26 -29
0 -4 -31 -43 -62 -76 -9 -10 -14 -21 -11 -24 3 -3 -2 -8 -11 -12 -9 -3 -16
-16 -16 -28 0 -16 -2 -18 -9 -7 -7 10 -11 5 -16 -18 -4 -17 -10 -29 -14 -27
-4 3 -16 -12 -27 -32 -10 -20 -25 -43 -31 -50 -7 -7 -13 -19 -13 -27 0 -7 -7
-16 -16 -19 -8 -3 -12 -10 -9 -16 3 -5 2 -10 -3 -10 -10 0 -48 -70 -44 -82 1
-5 -2 -8 -8 -8 -5 0 -10 -7 -10 -16 0 -9 -5 -12 -12 -8 -7 4 -10 4 -6 -1 4 -4
2 -17 -4 -29 -7 -11 -11 -24 -10 -28 1 -5 -4 -8 -12 -8 -8 0 -14 -6 -13 -12 1
-19 -26 -78 -35 -78 -4 0 -8 -9 -8 -19 0 -11 -3 -21 -7 -23 -14 -6 -78 -149
-75 -165 2 -7 -2 -13 -8 -13 -5 0 -10 -12 -10 -26 0 -14 -4 -23 -8 -20 -4 2
-9 -5 -10 -17 -3 -33 -7 -51 -13 -62 -3 -5 -5 -22 -4 -37 0 -15 -3 -24 -7 -22
-9 6 -10 -6 -10 -137 -1 -48 2 -95 7 -105 4 -11 9 -30 10 -44 1 -14 6 -41 10
-60 5 -19 8 -39 7 -43 -2 -5 2 -6 8 -2 6 4 10 -4 10 -19 0 -14 4 -26 10 -26 5
0 7 -6 4 -14 -3 -8 -1 -17 5 -21 6 -3 11 -14 11 -23 0 -10 9 -24 19 -32 11 -7
17 -18 14 -22 -3 -5 3 -15 13 -23 11 -7 19 -17 19 -22 0 -16 78 -92 88 -86 6
3 8 2 5 -3 -6 -11 28 -45 36 -36 3 3 6 1 6 -5 0 -5 15 -18 34 -28 19 -11 32
-23 29 -28 -3 -4 1 -7 8 -6 8 2 30 -7 50 -19 33 -21 36 -25 26 -46 -8 -17 -19
-23 -39 -22 -15 1 -28 -1 -28 -5 0 -4 -8 -6 -17 -4 -10 1 -29 -4 -41 -12 -13
-8 -26 -12 -29 -9 -3 3 -18 -3 -33 -14 -16 -11 -34 -20 -41 -20 -7 0 -10 -2
-7 -5 3 -3 -17 -28 -44 -55 -26 -27 -48 -58 -48 -69 0 -12 -4 -21 -9 -21 -10
0 -26 -63 -25 -97 1 -13 -3 -23 -8 -23 -5 0 -6 -6 -2 -12 11 -17 12 -48 2 -42
-4 3 -8 0 -8 -5 0 -6 3 -11 8 -11 4 0 7 -16 6 -35 -1 -19 2 -38 7 -41 5 -3 9
-14 9 -25 0 -11 5 -17 10 -14 5 3 10 0 10 -7 0 -15 40 -61 89 -99 20 -17 28
-30 21 -34 -8 -5 -8 -11 1 -21 6 -7 9 -20 6 -29 -4 -8 -2 -17 4 -20 5 -4 7
-10 4 -15 -3 -5 -6 -51 -7 -102 -1 -83 -5 -114 -25 -168 -3 -8 -7 -28 -9 -43
-2 -16 -8 -36 -14 -46 -5 -10 -6 -21 -3 -25 3 -3 -1 -6 -9 -6 -10 0 -15 -7
-14 -17 2 -10 -4 -24 -13 -30 -13 -10 216 -12 1089 -13 l1106 0 -1 104 c0 102
0 103 17 77 10 -14 18 -32 18 -39 0 -7 7 -24 16 -37 9 -14 13 -25 9 -25 -5 0
0 -9 10 -20 10 -11 15 -20 12 -20 -4 0 1 -9 10 -20 16 -19 29 -20 213 -19 107
0 189 3 183 6 -7 2 -13 13 -13 24 0 10 -3 19 -7 19 -8 0 -38 47 -41 63 -1 4
-8 15 -17 23 -8 9 -13 20 -10 25 4 5 1 9 -5 9 -6 0 -8 5 -5 10 3 6 2 10 -3 10
-6 0 -18 27 -28 60 -10 33 -23 60 -30 60 -8 0 -11 9 -9 21 2 12 -2 33 -9 48
-7 14 -11 32 -8 40 3 9 0 11 -8 6 -10 -6 -12 -2 -8 13 4 12 2 25 -3 28 -5 3
-9 23 -9 45 0 30 -3 38 -12 33 -9 -5 -9 -2 1 9 9 11 10 17 2 17 -24 0 -9 27
39 69 28 25 50 51 50 58 0 7 4 13 10 13 5 0 9 3 8 8 0 4 6 24 16 44 9 21 18
52 20 70 3 18 6 33 7 33 1 0 2 19 3 42 1 23 -1 40 -4 38 -4 -2 -7 12 -8 32 -1
20 -6 41 -11 46 -5 5 -7 16 -4 23 3 8 1 14 -5 14 -5 0 -17 18 -26 40 -9 23
-23 43 -31 46 -8 4 -13 10 -10 14 3 5 -4 12 -16 15 -11 4 -18 9 -15 12 3 3 -4
15 -17 25 -12 11 -32 28 -44 39 -13 10 -23 16 -23 11 0 -4 -4 -2 -8 3 -6 9
-32 23 -102 54 -14 6 -37 12 -52 13 -16 1 -28 6 -28 10 0 4 -12 3 -26 -2 -39
-15 -50 -1 -19 26 16 13 25 24 21 24 -4 0 -1 6 6 14 7 8 16 12 20 10 3 -2 11
10 17 27 6 17 14 28 19 25 5 -3 15 13 22 34 7 22 19 45 26 51 7 6 11 19 9 30
-2 11 0 17 6 14 5 -4 9 3 9 14 0 12 4 21 8 21 5 0 9 6 9 13 1 6 4 30 8 52 5
22 8 48 7 58 0 9 3 15 7 13 5 -3 8 69 8 159 1 91 -3 165 -7 165 -5 0 -7 8 -6
17 2 9 -1 35 -6 57 -5 23 -9 51 -9 64 1 12 -4 22 -10 22 -6 0 -9 6 -6 13 2 6
0 23 -6 37 -5 14 -11 32 -13 40 -2 8 -7 23 -13 35 -5 11 -17 44 -27 73 -10 28
-22 52 -27 52 -4 0 -6 4 -2 9 3 5 1 12 -5 16 -6 4 -8 10 -5 15 3 5 -2 15 -10
24 -8 8 -18 29 -21 45 -4 17 -10 29 -14 26 -5 -3 -16 15 -26 39 -10 24 -22 42
-26 40 -5 -3 -8 4 -8 15 0 12 -4 21 -10 21 -5 0 -10 7 -10 15 0 8 -4 15 -9 15
-5 0 -15 16 -21 35 -6 19 -17 35 -25 35 -7 0 -16 11 -19 25 -4 14 -10 23 -15
21 -5 -3 -11 4 -15 17 -3 12 -5 22 -4 22 1 0 -18 19 -41 43 -23 23 -39 42 -36
42 2 0 -15 21 -40 46 -25 25 -45 49 -45 55 0 5 -6 9 -14 9 -8 0 -17 9 -21 19
-3 11 -15 23 -26 26 -10 4 -19 12 -19 20 0 7 -10 19 -22 28 -13 8 -37 27 -54
43 -58 55 -98 85 -128 101 -17 9 -35 22 -39 29 -4 8 -17 14 -27 14 -11 0 -20
5 -20 10 0 6 -7 10 -15 10 -8 0 -15 5 -15 10 0 6 -5 10 -11 10 -6 0 -25 6 -42
14 -50 22 -71 29 -89 31 -10 2 -23 3 -29 4 -5 0 -7 5 -4 11 3 5 0 7 -8 4 -10
-4 -14 2 -14 20 0 37 -29 76 -58 77 -33 2 -38 3 -52 12 -6 4 -14 3 -18 -3 -4
-6 -12 -4 -22 6 -9 9 -12 19 -7 22 13 10 17 35 4 27 -5 -3 -10 -1 -10 4 0 6 4
11 9 11 8 0 16 46 23 133 1 15 4 27 8 27 3 0 6 10 7 22 1 11 6 24 11 27 5 3 8
16 7 28 -1 12 2 20 7 17 4 -3 8 5 8 18 0 13 6 30 13 37 6 6 12 15 13 19 3 21
31 71 37 65 7 -6 10 11 5 22 -2 2 8 12 22 22 14 9 29 23 33 30 5 7 12 11 18 8
5 -4 9 -1 9 4 0 6 9 11 21 11 11 0 17 5 14 10 -3 6 3 10 14 10 22 0 25 11 21
80 -1 19 -6 37 -11 38 -5 2 -9 10 -9 18 0 9 -4 13 -9 9 -6 -3 -13 0 -18 8 -8
13 -44 18 -53 7 -3 -3 -21 -14 -40 -23 -19 -9 -46 -31 -60 -48 -14 -17 -33
-39 -42 -49 -9 -10 -14 -21 -10 -24 3 -3 0 -6 -6 -6 -7 0 -11 -3 -10 -7 1 -5
-3 -18 -10 -29 -6 -12 -9 -24 -7 -28 3 -3 2 -4 -2 -1 -9 7 -34 -45 -27 -56 3
-5 -2 -9 -10 -9 -8 0 -16 -8 -19 -17 -2 -10 -4 -1 -3 19 0 21 3 38 6 38 3 0 5
19 4 43 -1 23 2 44 5 47 12 10 32 52 21 45 -6 -3 -1 10 10 30 24 42 25 73 5
99 -8 11 -15 16 -15 12 0 -4 -10 0 -21 8 -25 17 -45 11 -76 -22 -21 -23 -27
-36 -24 -54 0 -5 -6 -8 -15 -8 -8 0 -13 -4 -10 -8 3 -5 -2 -31 -10 -58 -8 -27
-17 -71 -18 -97 -3 -48 -15 -77 -17 -41 -1 10 -1 22 0 27 0 4 -3 7 -7 7 -5 0
-8 19 -8 43 0 23 -5 41 -11 40 -11 -2 -11 26 1 45 4 6 3 12 -2 12 -5 0 -10 15
-10 33 0 73 -6 106 -15 100 -6 -4 -8 0 -5 9 5 11 -3 15 -36 16 -22 1 -48 -4
-57 -11z"/>
</g>
</svg>
